<svg width="512" height="512" version="1.0" xml:space="preserve" xmlns="http://www.w3.org/2000/svg" xmlns:xlink="http://www.w3.org/1999/xlink"><symbol id="d" viewBox="-35 -35 70 70"><linearGradient id="a" x1="30.5" x2="-23.5" y1="5.1" y2="-25.8" gradientUnits="userSpaceOnUse"><stop stop-color="#DD1265" offset="0"/><stop stop-color="#DD1265" offset=".5"/><stop stop-color="#FDB60D" offset=".9"/></linearGradient><path d="M35-7.7-14.1-35l32.9 48.9 6.7-4.4z" style="fill:url(#a)"/><linearGradient id="b" x1="-1.6" x2="19.8" y1="-28.9" y2="30.2" gradientUnits="userSpaceOnUse"><stop stop-color="#087CFA" offset=".1"/><stop stop-color="#DD1265" offset=".5"/><stop stop-color="#087CFA" offset="1"/></linearGradient><path d="m15.5-18.9-6.2-15-13.6 13.4 5.5 48.6L14.4 35 35 23z" fill="url(#b)"/><linearGradient id="c" x1="-17.6" x2="-1.8" y1="-27.1" y2="29.1" gradientUnits="userSpaceOnUse"><stop stop-color="#DD1265" offset=".3"/><stop stop-color="#FDB60D" offset="1"/></linearGradient><path d="M-14.1-35-35-20.9l7.8 48.1 20.1 7.7 26-21z" fill="url(#c)"/><path d="M21-21h-42v42h42z"/><path d="M-.6 13.6h-15.8v2.7H-.6zM.5-15.8h6.2c5 0 8.4 3.4 8.4 7.7 0 4.4-3.4 7.9-8.4 7.9L.5 0zM4-12.6v9.5h2.7c2.8 0 4.8-1.9 4.8-4.6 0-2.8-1.9-4.7-4.8-4.7zm-19.7-3.2h7.2c2 0 3.5.6 4.6 1.6.9.9 1.3 2.1 1.3 3.6v.1c0 1.3-.3 2.3-.9 3.1S-4.9-6-5.9-5.6L-2 0h-4.1l-3.3-4.8h-2.9V0h-3.5zm7 7.7c.8 0 1.5-.2 2-.6s.7-1 .7-1.6v-.1c0-.8-.2-1.3-.7-1.7-.5-.3-1.1-.6-2-.6h-3.4v4.5h3.4z" style="fill:#fff"/></symbol><use transform="matrix(7.0683 0 0 7.2481 256 256)" x="-35" y="-35" width="70" height="70" xlink:href="#d"/></svg>