<?xml version="1.0" standalone="no"?>
<!DOCTYPE svg PUBLIC "-//W3C//DTD SVG 20010904//EN"
 "http://www.w3.org/TR/2001/REC-SVG-20010904/DTD/svg10.dtd">
<svg version="1.0" xmlns="http://www.w3.org/2000/svg"
 width="720.000000pt" height="720.000000pt" viewBox="0 0 720.000000 720.000000"
 preserveAspectRatio="xMidYMid meet">
<metadata>
Created by potrace 1.14, written by Peter Selinger 2001-2017
</metadata>
<g transform="translate(0.000000,720.000000) scale(0.100000,-0.100000)"
fill="#000000" stroke="none">
<path d="M3389 7195 c-2 -1 -49 -6 -104 -10 -55 -4 -102 -8 -105 -10 -3 -1
-32 -6 -65 -9 -420 -47 -960 -235 -1350 -471 -470 -283 -879 -672 -1159 -1100
-14 -22 -29 -45 -33 -51 -12 -15 -28 -41 -77 -125 -162 -274 -292 -588 -375
-899 -34 -128 -77 -342 -86 -426 -4 -30 -8 -64 -10 -74 -19 -100 -27 -543 -13
-725 18 -232 73 -520 141 -740 12 -38 21 -73 22 -77 0 -3 3 -10 7 -14 5 -4 8
-14 8 -21 0 -24 110 -292 171 -418 85 -176 129 -252 244 -425 265 -398 580
-716 980 -991 44 -30 87 -58 95 -62 8 -4 44 -25 80 -48 93 -59 284 -156 435
-222 297 -128 648 -221 995 -264 107 -13 795 -10 870 4 36 7 90 15 120 19 30
3 58 8 62 10 4 3 26 7 50 10 80 11 317 73 452 118 662 222 1237 624 1681 1176
77 96 260 363 311 455 171 307 314 672 379 965 15 68 34 161 39 190 3 19 8 49
11 65 10 58 15 91 22 155 10 86 10 758 0 835 -16 120 -18 133 -42 260 -176
941 -739 1787 -1545 2320 -188 124 -319 197 -493 277 -367 167 -717 262 -1152
313 -55 7 -561 16 -566 10z"/>
</g>
</svg>
