<svg xmlns="http://www.w3.org/2000/svg" xmlns:xlink="http://www.w3.org/1999/xlink" fill="#fff" fill-rule="evenodd" stroke="#000" stroke-linecap="round" stroke-linejoin="round" viewBox="0 0 56 81"><use xlink:href="#a" x=".5" y=".5"/><symbol id="a" overflow="visible"><g stroke="none"><path fill="#4b612c" d="M38 59.8a6.7 6.7 0 0 1 5.8-4h.3l.9-.2-.1-21.6H0v33h37v-3.1a9 9 0 0 1 1-4.1z"/><path fill="#759c3e" d="M38 57.1a6.7 6.7 0 0 1 5.8-3.8H45V13.6H0v51h37V61a8 8 0 0 1 1-3.9z"/><path fill="#4b612c" d="M51 67.7V62c-.4-3.7-3-6.4-6.1-6.4s-5.7 2.7-6 6.4v5.6h-3.2V80H54V67.7zm-3 0h-6.3V62c0-1 .4-1.8 1-2.5s1.4-1 2.2-.8c1.6-.1 3 1.4 3 3.3z"/><path fill="#759c3e" d="M51 66v-4.8c-.4-3.6-3-6.2-6.1-6.2s-5.7 2.6-6 6.2l-.1 4.8h-3.3v12l18.5.1V66zm-3 0h-6.3v-4.8c0-1 .4-1.8 1-2.4s1.4-1 2.2-.8c1.6-.1 3 1.3 3.1 3.2z"/><path d="M15.8 30.8h15.4v3H15.8zm0 7.2h15.4v3H15.8zm0 7h15.4v3H15.8zM10 23h27v32H10zm3 3.5h21v25H13z"/></g><path fill="#4b612c" stroke="none" d="M0 6h45v3H0z"/><path fill="#759c3e" stroke="none" d="M22.5 6H45l-6.5-6h-32L0 6z"/></symbol></svg>