<svg xmlns="http://www.w3.org/2000/svg" xmlns:xlink="http://www.w3.org/1999/xlink" viewBox="0 0 56 81" fill="#fff" fill-rule="evenodd" stroke="#000" stroke-linecap="round" stroke-linejoin="round"><use xlink:href="#A" x=".5" y=".5"/><symbol id="A" overflow="visible"><g stroke="none"><path d="M37.927 59.759c1.234-2.412 3.466-3.89 5.877-3.892h.31l.885-.244-.109-21.589L0 34v33h37l-.049-3.145c-.001-1.443.337-2.859.976-4.096z" fill="#4b612c"/><path d="M37.927 57.148c1.228-2.348 3.461-3.792 5.877-3.8h.31l.885.014V13.5H0v51h37l.02-3.465c-.001-1.398.268-2.689.908-3.887z" fill="#759c3e"/><path d="M50.949 67.695v-5.547c-.374-3.699-2.979-6.48-6.07-6.48s-5.696 2.781-6.07 6.48v5.547h-3.148V80H54V67.695zm-2.998 0h-6.22v-5.547c.009-.963.352-1.877.946-2.521s1.384-.958 2.179-.867c1.634-.088 3.025 1.42 3.125 3.388z" fill="#4b612c"/><path d="M51 66l-.05-4.844C50.576 57.642 47.971 55 44.879 55s-5.696 2.642-6.07 6.156L38.75 66H35.5v12.078l18.5.036V66zm-3 0h-6.25l-.018-4.844c.019-.912.369-1.773.967-2.377s1.388-.893 2.181-.799c1.634-.083 3.025 1.349 3.125 3.218z" fill="#759c3e"/><path d="M15.75 30.75h15.5v3h-15.5zm0 7.25h15.5v3h-15.5zm0 7h15.5v3h-15.5zM10 23h27v32H10zm3 3.5h21v25H13z"/></g><path fill="#4b612c" stroke="none" d="M0 6h45v3H0z"/><path fill="#759c3e" d="M22.5 6H45l-6.5-6h-16-16L0 6z" stroke="none"/></symbol></svg>