<svg xmlns="http://www.w3.org/2000/svg" width="1306" height="2500" preserveAspectRatio="xMidYMid" viewBox="0 0 256 490"><path fill="#3C4929" d="m21 166-21 7 22 2-1-9m-1 41 108 7 108-7-108-21-108 21m215-32 21-2-21-6v8"/><path fill="#B7CA9D" d="m157 353 57 13-57 17v-30"/><path fill="#4B612C" d="M20 92V54L128 0v50L68 74v84l31-5 29-6v343l-32-16v-46l-29-11V202l-47 5v-38l-20 4v-73l20-8"/><path fill="#759C3E" d="m99 153-32 6V73l32 10v70m85-125 52 26v38l20 8v73l-20-4v38l-25-3-22-2v43h47v39l-22 2v40l-54 11v45l54-16v41l-54 21v46l-32 16V147l29 6 30 4V74l-58-23-1-2V0l56 28"/><path fill="#3C4929" d="m160 62-32-13-61 24 32 10 61-21"/><path fill="#3C4929" d="m67 73 61-24 13 5 19 8 29 11-2 2-29 9-1-1-29-10-29 10-32-10"/><path fill="#4B612C" d="m157 83 32-10v86l-32-6V83"/></svg>