<?xml version="1.0" encoding="UTF-8"?>
<svg width="2e3" height="2e3" version="1.1" viewBox="-.1 1.1 243.92 245.46" xmlns="http://www.w3.org/2000/svg">
 <rect x="-.87038" y="1.1" width="245.46" height="245.46" fill="#232f3e" stroke-width=".11825"/>
 <g transform="matrix(.9 0 0 .9 12.186 52.647)">
  <path d="m74.628 61.381c0 2.664 0.288 4.824 0.792 6.408 0.576 1.584 1.296 3.312 2.304 5.184 0.36 0.576 0.504 1.152 0.504 1.656 0 0.72-0.432 1.44-1.368 2.16l-4.536 3.024c-0.648 0.432-1.296 0.648-1.872 0.648-0.72 0-1.44-0.36-2.16-1.008-1.008-1.08-1.872-2.232-2.592-3.384-0.72-1.224-1.44-2.592-2.232-4.248-5.616 6.624-12.672 9.936-21.168 9.936-6.048 0-10.872-1.728-14.4-5.184s-5.328-8.064-5.328-13.824c0-6.12 2.16-11.088 6.552-14.832s10.224-5.616 17.64-5.616c2.448 0 4.968 0.216 7.632 0.576s5.4 0.936 8.28 1.584v-5.256c0-5.472-1.152-9.288-3.384-11.52-2.304-2.232-6.192-3.312-11.736-3.312-2.52 0-5.112 0.288-7.776 0.936s-5.256 1.44-7.776 2.448c-1.152 0.504-2.016 0.792-2.52 0.936-0.504 0.144-0.864 0.216-1.152 0.216-1.008 0-1.512-0.72-1.512-2.232v-3.528c0-1.152 0.144-2.016 0.504-2.52s1.008-1.008 2.016-1.512c2.52-1.296 5.544-2.376 9.072-3.24 3.528-0.936 7.272-1.368 11.232-1.368 8.568 0 14.832 1.944 18.864 5.832 3.96 3.888 5.976 9.792 5.976 17.712v23.328zm-29.232 10.944c2.376 0 4.824-0.432 7.416-1.296s4.896-2.448 6.84-4.608c1.152-1.368 2.016-2.88 2.448-4.608s0.72-3.816 0.72-6.264v-3.024c-2.088-0.504-4.32-0.936-6.624-1.224s-4.536-0.432-6.768-0.432c-4.824 0-8.352 0.936-10.728 2.88s-3.528 4.68-3.528 8.28c0 3.384 0.864 5.904 2.664 7.632 1.728 1.8 4.248 2.664 7.56 2.664zm57.816 7.776c-1.296 0-2.16-0.216-2.736-0.72-0.576-0.432-1.08-1.44-1.512-2.808l-16.92-55.656c-0.432-1.44-0.648-2.376-0.648-2.88 0-1.152 0.576-1.8 1.728-1.8h7.056c1.368 0 2.304 0.216 2.808 0.72 0.576 0.432 1.008 1.44 1.44 2.808l12.096 47.664 11.232-47.664c0.36-1.44 0.792-2.376 1.368-2.808s1.584-0.72 2.88-0.72h5.76c1.368 0 2.304 0.216 2.88 0.72 0.576 0.432 1.08 1.44 1.368 2.808l11.376 48.24 12.456-48.24c0.432-1.44 0.936-2.376 1.44-2.808 0.576-0.432 1.512-0.72 2.808-0.72h6.696c1.152 0 1.8 0.576 1.8 1.8 0 0.36-0.072 0.72-0.144 1.152s-0.216 1.008-0.504 1.8l-17.352 55.656c-0.432 1.44-0.936 2.376-1.512 2.808s-1.512 0.72-2.736 0.72h-6.192c-1.368 0-2.304-0.216-2.88-0.72s-1.08-1.44-1.368-2.88l-11.16-46.44-11.088 46.368c-0.36 1.44-0.792 2.376-1.368 2.88s-1.584 0.72-2.88 0.72zm92.52 1.944c-3.744 0-7.488-0.432-11.088-1.296s-6.408-1.8-8.28-2.88c-1.152-0.648-1.944-1.368-2.232-2.016s-0.432-1.368-0.432-2.016v-3.672c0-1.512 0.576-2.232 1.656-2.232 0.432 0 0.864 0.072 1.296 0.216s1.08 0.432 1.8 0.72c2.448 1.08 5.112 1.944 7.92 2.52 2.88 0.576 5.688 0.864 8.568 0.864 4.536 0 8.064-0.792 10.512-2.376s3.744-3.888 3.744-6.84c0-2.016-0.648-3.672-1.944-5.04s-3.744-2.592-7.272-3.744l-10.44-3.24c-5.256-1.656-9.144-4.104-11.52-7.344-2.376-3.168-3.6-6.696-3.6-10.44 0-3.024 0.648-5.688 1.944-7.992s3.024-4.32 5.184-5.904c2.16-1.656 4.608-2.88 7.488-3.744s5.904-1.224 9.072-1.224c1.584 0 3.24 0.072 4.824 0.288 1.656 0.216 3.168 0.504 4.68 0.792 1.44 0.36 2.808 0.72 4.104 1.152s2.304 0.864 3.024 1.296c1.008 0.576 1.728 1.152 2.16 1.8 0.432 0.576 0.648 1.368 0.648 2.376v3.384c0 1.512-0.576 2.304-1.656 2.304-0.576 0-1.512-0.288-2.736-0.864-4.104-1.872-8.712-2.808-13.824-2.808-4.104 0-7.344 0.648-9.576 2.016s-3.384 3.456-3.384 6.408c0 2.016 0.72 3.744 2.16 5.112s4.104 2.736 7.92 3.96l10.224 3.24c5.184 1.656 8.928 3.96 11.16 6.912s3.312 6.336 3.312 10.08c0 3.096-0.648 5.904-1.872 8.352-1.296 2.448-3.024 4.608-5.256 6.336-2.232 1.8-4.896 3.096-7.992 4.032-3.24 1.008-6.624 1.512-10.296 1.512z" fill="#fff" stroke-width=".72"/>
  <g transform="matrix(.72 0 0 .72 12.418 13.573)" clip-rule="evenodd" fill="#f90" fill-rule="evenodd">
   <path d="m273.5 143.7c-32.9 24.3-80.7 37.2-121.8 37.2-57.6 0-109.5-21.3-148.7-56.7-3.1-2.8-0.3-6.6 3.4-4.4 42.4 24.6 94.7 39.5 148.8 39.5 36.5 0 76.6-7.6 113.5-23.2 5.5-2.5 10.2 3.6 4.8 7.6z"/>
   <path d="m287.2 128.1c-4.2-5.4-27.8-2.6-38.5-1.3-3.2 0.4-3.7-2.4-0.8-4.5 18.8-13.2 49.7-9.4 53.3-5 3.6 4.5-1 35.4-18.6 50.2-2.7 2.3-5.3 1.1-4.1-1.9 4-9.9 12.9-32.2 8.7-37.5z"/>
  </g>
 </g>
</svg>
