<svg xmlns="http://www.w3.org/2000/svg" width="2500" height="2500" viewBox="0 0 192.8 192.8"><g fill-rule="evenodd" clip-rule="evenodd"><path fill="none" d="M0 0h192.8v192.8H0V0z"/><path d="m104.4 10.7 3 .3c1.6.4 3.3.9 4.8 1.5 1 .4 1.9 1.1 2.8 1.4 1.4.7 2.3 2 3.6 2.7L121 19l1.2 1.6c.2.6.8 1.1 1 1.8.3.8.7 1.7.8 2.6.2 1 .5 2 .5 3.1-.2 8-.3 16 0 24.1.4 2.4.2 4.9.9 7.2.3 1.7.6 3.5 1.3 4.8 1.3 2.3 2.3 4.8 3.7 7.1l2.2 2.7c1.5 2.2 2.8 4.8 4.4 6.8 1 2.1 2.2 4.2 3.4 6.2.9 2.7 2.4 5 3 7.8.9 3.1 1.9 6.2 2.3 9.6 1 5.4 1.7 10.8 2.4 16.3 0 3-.4 6-.3 9-.3.9 0 1.9-.3 2.9-.3 1.4-1.2 2.6-1.4 4 0 .8-.3 1.5-.2 2.3.7 1.3.7 2.8 1 4.2.6.3.8 1 1.4 1.3 1-.2 2 .3 3.1.2 1.3-.4 2.6-.3 3.8-.6 1.5-.1 3 .3 4.5.2 1 .6 2 1 3 1.7.7.4 1 1.4 1.8 2-.2 1.3 0 2.7-.3 4-1.4 1.8-2.6 3.9-3.9 5.8-2.2 2.1-4 4.7-6 7-2.6 2.7-4.9 5.6-7.5 8.2-3 1.8-5.4 4.5-8.3 6.5-1.3.6-2.4 1.7-3.8 2-1.1.3-2.4.5-3.6.6h-3.2c-1-.3-2-.3-3-.7l-1.9-.8c-1.1-.6-2-1.6-3-2.4-.2-.7-.8-1.2-1.3-1.8-.6-1.2-1.1-2.4-1.4-3.7 0-.6-.3-1.2-.4-1.7-2.6.2-5.2.2-7.8.5-2.7-.1-5.4-.2-8-.1-3.6-.5-7-.7-10.6-1.5-2.5-.5-5-1-7.4-1.8l-5.5-2.3c-.3-.4-.9-.4-1.2-.8-.8.7-1.3 1.8-2.2 2.7-.6 1.6-1.7 3-2.5 4.5-.3.4-.8.8-.9 1.3l-2 2c-1.2.4-2.4 1.3-3.8 1.5-.3.4-1.2 0-1.6.4-1.2.2-2.4-.3-3.6-.1-1.4-.7-3-1-4.3-1.8l-7.3-4a431.5 431.5 0 0 1-14.4-11.1l-4.5-4.5c-.4-1.2-.8-2.3-1-3.5l.7-2.5c.5-.3.8-.9 1.3-1.3.5-1 2-1 3-1.6 1-.3 2-.3 3.2-.5 1.3 0 2.2-.7 3.3-1 .1-.4.4-.6.6-1 .2-1.4-.4-2.9-.3-4.3l.9-2.4c.2-.6.8-1.2 1.3-1.5.4-.1.5-.5 1-.5a17.1 17.1 0 0 1 3.3 0l3 1.2c.5.2 1.3 0 1.9.1.6-.4 1-1.3 1.5-1.7a20.8 20.8 0 0 1 2.9-4.5c.3-.1.4-.5.7-.5.5-.3.3-1 .3-1.2-.5-3.3 0-6.6 0-9.9.2-2.6.5-5.3 1-7.8.4-2.4 1-4.7 1.5-7 1-2.9 2.2-5.7 3.3-8.5C68 85.1 74 74.7 79.6 64.1l2.8-4.6v-.3c-.2-1.4.5-2.8.3-4.1V43.5c-.3-2.5 0-4.9-.3-7.3l-.1-.8v-6.9c.2 0 .1-.2.1-.3-.2-.6.3-1.1.2-1.8.3-.8.5-1.7.6-2.5a19.2 19.2 0 0 1 3.1-4.6c1.2-1.2 2.5-2.1 3.7-3.2 1.6-1.3 3.5-2.3 5.4-3.3 1.2-.4 2.3-1.1 3.7-1.3 1.7-.6 3.5-.8 5.3-.8z"/><path fill="#fff" d="m112 36.9 2.4 1.6c.6 1.5 0 3.1.1 4.7-.7 2-1.2 4.3-3.2 5.4-1.2 0-2.4-.4-3.5-.8 1-.4 2.5-.9 3-2.2.5-.9.8-1.9.9-3a6.9 6.9 0 0 0-1.1-3.5 4.7 4.7 0 0 0-2.4-1.5c-1.6-.3-2.8.7-3.5 1.7-.4.7-.8 1.5-1 2.3-.2 1.7.4 3.5 1.2 5-.7-.8-2-.8-2.3-1.8a10.1 10.1 0 0 1 0-8c3-1 6.3-1.1 9.3 0zm-21-.1c.7.5 1.7.3 2.2 1a12.8 12.8 0 0 1 .5 7.7c-.7 0-1.3 1.3-1.7.7.8-2 .8-4.3-.3-6.1-.6-.8-1.4-1.6-2.4-1.6-.7.3-1.5.4-2 1-1.2 1.4-1.4 3.4-1.2 5a5.2 5.2 0 0 0 2.9 4 9 9 0 0 1-2.2.9 12 12 0 0 1-2-4.1c-.6-2.1-.2-4.2-.2-6.3a9 9 0 0 1 2.8-2c.8-.5 2.5-.2 3.6-.2zm21.5 23c.8 2.5 1.3 5 2 7.7.8 2.8 2.2 5.5 3.3 8.2a77 77 0 0 1 3.3 6.9l.2.2 7 15.3a122 122 0 0 1 3.7 11.7c.1 2 1 4 .7 6-1 4-1.9 8-3.2 11.7-.3.7-.6 1.5-1.2 2-.2 0-.2.3-.5.2-.6.5-1 1-1.3 1.7a12.3 12.3 0 0 0-.7 4.1c-.6 0-1-.4-1.4-.7l-3-.8c-1.2.1-3.3-.7-3.7.7-.5.7-1 1-1.4 1.7a101.8 101.8 0 0 0-1.3 11.3c.2 2.5-.2 5 0 7.5a22.7 22.7 0 0 1-5.5 2.5c-1.5.5-2.9 1-4.7 1.1-1.6.3-3.3.3-4.8.5-2.5.2-5 0-7.3.1l-5.3-.7c-3.4-.7-6.7-1.7-9.8-3.3 0-1.2.7-2.6.2-3.9-1.7-5-4.2-9.7-6.3-14.7-1.8-4.6-3.2-9.4-5-14a65.3 65.3 0 0 1-3-7.3c-.5-.7 0-1.4.1-2 .7-3.5 2.2-6.5 3.4-9.8 2-4 3.8-8.1 6.2-12 1.2-2 1.1-4.2 1.8-6.4.8-2.6 2.1-4.9 3.2-7.3 1.7-2.7 3-5.6 4.6-8.2 1.4-3 2.4-6.4 4-9l2.8 2.4a9 9 0 0 0 4.1 1.2c2 .3 4 0 6 0 2.6-.5 5.3-1 7.7-2.4 1.6-.8 3.2-2 4.9-2.6l.2.4zM63 97.4l.1-.4v.4zm-.8 2.6v-.2.2z"/><path fill="#e7bf5d" d="M99 43.7c.7.3 1.6.4 2.3.8.2.4.7.7.8 1 2.7 1.5 5.3 3 8.4 3.7 1.4-.2 2.8.4 4 1.1l1 1.2c.2 1 .9 1.7.6 2.9-.3.6-.4 1.3-.8 1.7-.6.6-.9 1.3-1.5 1.8-2.8 1.3-5.2 3.1-8 4.2A30 30 0 0 1 95.1 64c-1.1-.2-2.3-.2-3.3-.6-.8-.2-1.5-.7-2.1-1C88 61 86 60 84.7 58c0-.5-.4-.7-.6-1.2-.5-.9-.4-2.8 0-3.8 0-.7.5-1.2.6-1.7 2.2-1.5 4.7-2.2 6.8-3.7 1-1.4 3-1.7 4-3 1.2-.3 2.2-1.3 3.4-.9z"/><path d="M112 55.2c-1.3 1.4-3.2 1.7-5 2.4-4.1.7-8.4 1.2-12.6 1.4a47.5 47.5 0 0 1-5.4 0 9.4 9.4 0 0 1-3.3-1.4c-.5-.6-1.3-1.2-1.4-2 1.4.6 2.2 2.4 4 2.5 3.6.7 7.3.1 11-.1a63 63 0 0 0 12.8-2.8z"/><path fill="#c6c7c9" d="m82.3 28.5.1-.3-.1.3zm27.8 4c.6 0 .9.6 1.4.6.7.6 1.2 1.3 1.8 2 .2 1.2 1.2 2.1 1 3.4l-2.4-1.6c-3-1.2-6.3-1-9.4 0 .1-.8.8-1.4 1-2 .7-1.1 1.8-2 3-2.4 1.1-.7 2.4-.3 3.6 0zm-20.7 1c.5 0 .9.6 1.4.7.6.7 1.4 1.4 1.9 2.3.3.3.2 1 .5 1.3-.5-.7-1.5-.5-2.1-1-1.2 0-2.9-.3-3.7.3-1 .4-2 1-2.8 2v-1a13.4 13.4 0 0 1 1.2-3.3c.6-.3.9-1 1.6-1.2.4-.4 1.5-.2 2-.2zm-7 2.7-.1-.8.1.8zm0 23.3v-.3.3zm38.8 23.3v-.2c.1 0 0 .1 0 .2zm-57 11.5.2-.3-.2.3zm30.5 6c.1.7 0 1.6.3 2.2-1 5.6-1.6 11.1-2.1 16.7-.5 4.7-.4 9.3-1.2 14-.1.3-.4.9-.9 1.1-.3.1-.5-.1-.7-.3-.2-.5-.5-.9-.5-1.6-.2-1 0-2-.1-3 .2-6.1.9-12.4 1.6-18.5.5-3.3.7-6.7 1.8-9.9a2.1 2.1 0 0 1 .8-1l.6-.2.4.5z"/><path fill="#e7bf5d" d="M61.2 129.3c.7.3 1.1 1 1.8 1.3.7 1.7 1.6 3 2.2 4.7 2 5.1 3.6 10.3 5.3 15.6.1.9.5 1.6.7 2.6.1 4 1.3 8.1 1.3 12.2-.2 1 .2 2.4-.3 3.2-.4 1.7-1.2 3-2 4.5-.9.8-1.6 1.7-2.7 2a14.2 14.2 0 0 1-7.3 1.2l-3.8-1.3c-2.7-1.6-5.5-3-8.2-4.4-4.5-3.6-9.2-7-13.6-10.7l-4.9-4.9c-.2-1-.5-1.9-1-2.8l1.2-3 1.2-1c1-.5 2-1 3.2-1.2 1.2-.3 2.8-.1 4-.6.7-.5 2-.5 2.3-1.5.1-.5.3-.8.6-1.1-.1-.9-.4-1.8-.4-2.6 0-.6-.2-1.5.2-2 0-.8.7-1.5.8-2.3l1.4-.8c.7 0 1.3-.4 2-.1.7.1 1.5 0 2.2.4.7.4 1.7.4 2.4 1h1.7c.8-.7 1.2-1.5 2-2.2l1.9-3.2 1.2-1.5c.6-.2 1-.7 1.6-1 .9-.4 1.8-.7 2.8-.7 0 .1.2 0 .2.2zm61.4 5.6c.6 0 1.2.4 1.8.5.4.2.6.7 1.2.7.2 1.6-.3 3.2.2 4.8.1.8.5 1.5.8 2.1.9 1.1 2.2 1.6 3.2 2.5 1.3.6 2.6 1.3 4 1.6 1.1.3 3 .6 4.2 0 .3-.3.8-.4 1.1-.6l2.1-2.5 3.1-6.2c.4.2.5.6.8.8 1 1.7.6 3.8 1.8 5.4.5.3.8 1 1.4 1 1 .2 2.1 0 3 .2 2.6-.5 5.4-.6 8.2-.4.8.3 1.6 1 2.5 1.1l1.8 2.2c0 1.3 0 2.6-.4 3.8l-4 6.2c-2.5 2.3-4.5 5.1-6.6 7.6-1.8 1.6-3.3 3.7-4.9 5.4l-1.8 1.8c-.9.4-1.4 1.2-2.3 1.5-1.6 1.5-3.6 2.7-5.2 4.4-1 .4-2 1-3 1.6-2.2.8-4.7 1.2-7 1.1-1.3-.4-2.6-.2-3.8-.9-.7-.4-1.5-.5-2-1a21 21 0 0 1-3.4-3.3c-.5-.8-.7-1.4-1-2.2l-2.8-12.9c0-5-.2-10.2.2-14.9.2-1.4-.1-3 .3-4.3.1-2 .7-3.9.8-5.8.7-.4 1-1 1.5-1.6 1.4.1 3.2-.3 4.2.3zM72.8 159c1.2 1 2.8 1.5 3.4 3.1.2.5.5 1.2.4 1.8-1.2 1.6-3.2 2.8-3.6 5 .4-3.3 0-6.8-.7-10.2.1.2.4 0 .5.3z"/><path fill="#fff" d="M63 97.4v.3-.3zm-.8 2.6-.3.3.3-.3zm.7-2.2v.3-.3zm0 0zm-.2.4v.3-.3zm.1 0zm-1.4 4zm1.2-3.6v.3-.3zm0 0zm-1.3 9v1.3c.1 0 .2.5.1 1.2l-.1-1.2-.2-1v-.5c-.2-.6 0-1.5 0-2.2l.2-2.2a46.4 46.4 0 0 0 .5-1.5c-.2.3-.3 1.6-.3 2.4a20 20 0 0 0-.2 3.7zM131.8 84l-.1.1.1-.1zm2.3 7.5c.7 1.9.8 4 .9 5.9.3 3.2 0 6.5 0 9.7-.5 5.4-1.3 10.8-2.4 16.2-.1.7-.7 1.2-.8 1.9-.2.1-.3.1-.4 0 0-.5.4-.8.5-1.2.7-3 1.2-6.2 1.8-9.3.4-2.5.5-4.9.6-7.3l.2-.1c-.2-1.7.3-3.4 0-5 .3-.2.2-.4.2-.6.2-2.3-.4-4.6-.2-6.9-.1-1.9-1-3.7-1.2-5.5-.3-1.8-1-3.5-3.5-10l2 5c.4.9 1 1.7 1.1 2.6.5 1.3 1 3 1.2 4.6zM62.5 99v.3-.3zm0 0zm0 .3-.2.1h.1z"/></g></svg>