<svg xmlns="http://www.w3.org/2000/svg" width="2500" height="2500" viewBox="-13.6 -3.5 81.7 72.1"><style>.C{fill:#ff6c37}.D{fill:#fff}</style><path d="M57.3 12.4a32 32 0 1 0-5.7 45 32 32 0 0 0 5.7-45z" class="C"/><path d="M42.8 20.4 29.3 34l-3.8-4C38.8 16.9 40 18 42.8 20.5z" class="D"/><path d="M29.3 34.4a.5.5 0 0 1-.3-.2l-4-3.8a.5.5 0 0 1 0-.7c13.1-13 15-12.5 18-9.7a.4.4 0 0 1 .2.4c0 .1 0 .2-.2.3L29.6 34.2a.5.5 0 0 1-.3.2zM26.2 30l3.1 3.1 12.8-12.8a2.9 2.9 0 0 0-3.8-.6c-2.3 1-6 4.2-12.1 10.3z" class="C"/><path d="M33.2 37.7 29.5 34 43 20.7c3.6 3.5-1.8 9.4-9.8 17z" class="D"/><path d="M33.2 38.2a.6.6 0 0 1-.4-.1l-3.7-3.7a.6.6 0 0 1 0-.4.5.5 0 0 1 0-.4l13.5-13.5a.5.5 0 0 1 .7 0 4.1 4.1 0 0 1 1.3 3.2c0 3.6-4.1 8.2-11 14.8a.6.6 0 0 1-.4.1zm-3-4.2 3 3c5.3-5 10.4-10.2 10.4-13.8a3 3 0 0 0-.6-2z" class="C"/><path d="m25.6 30.1 2.7 2.7a.2.2 0 0 1 0 .3l-5.7 1.2a.5.5 0 0 1-.4-1l3.2-3.2h.2z" class="D"/><path d="M22.5 34.8a1 1 0 0 1-.9-.5 1 1 0 0 1 .2-1.2l3.3-3.3a.6.6 0 0 1 .8 0l2.7 2.7c.1.1.2.3.1.6s-.2.3-.4.4l-5.6 1.2zm3-4-3 3 5-1.1zm.2-.3z" class="C"/><path d="M50 12.9a5.2 5.2 0 1 0-1 8.2l-3.6-3.7z" class="D"/><path d="M46.4 22.3a5.7 5.7 0 0 1-5.2-3.5 5.7 5.7 0 0 1 1.2-6.1 5.7 5.7 0 0 1 8 0l.2.3a.5.5 0 0 1-.2.3l-4.3 4.1 3.3 3.3a.5.5 0 0 1 .1.4.5.5 0 0 1-.2.3 5.8 5.8 0 0 1-3 .9zm0-10.4a4.7 4.7 0 0 0-3.3 8 4.7 4.7 0 0 0 5.1 1l-3.1-3.1a.4.4 0 0 1 0-.7l4.1-4.2a4.8 4.8 0 0 0-2.8-1z" class="C"/><path d="m50 13-4.5 4.5 3.6 3.6a5.5 5.5 0 0 0 1-.7 5.3 5.3 0 0 0 0-7.4z" class="D"/><path d="M49 21.5a.4.4 0 0 1-.3-.1l-3.6-3.6a.4.4 0 0 1 0-.7l4.5-4.4a.5.5 0 0 1 .8 0 5.6 5.6 0 0 1 0 8 4.9 4.9 0 0 1-1 .8.4.4 0 0 1-.4 0zm-2.9-4 3 3a5.1 5.1 0 0 0 .6-.5 4.7 4.7 0 0 0 1.4-3.4 4.6 4.6 0 0 0-1.2-3z" class="C"/><path d="M43.4 21a2 2 0 0 0-2.7 0l-12 12 2 2 12.7-11.2a2 2 0 0 0 0-2.9z" class="D"/><path d="M30.5 35.5a.5.5 0 0 1-.3-.1l-2-2a.5.5 0 0 1 0-.7l12-12a2.5 2.5 0 0 1 4.2 1.8 2.5 2.5 0 0 1-.8 1.7L30.8 35.4a.5.5 0 0 1-.3.1zM29.1 33l1.3 1.4 12.6-11c.3-.2.4-.6.5-1s-.2-.8-.5-1.1a1.5 1.5 0 0 0-2.1 0z" class="C"/><path d="M19.2 46.7a.3.3 0 0 0 0 .4l.6 2.3a.7.7 0 0 1-.4.7.7.7 0 0 1-.7-.1L15 46.5 26.4 35h4l2.6 2.7a60.5 60.5 0 0 1-13.8 9z" class="D"/><path d="M19 50.7c-.3 0-.6-.2-.8-.4l-3.5-3.5a.4.4 0 0 1 0-.7l11.5-11.4a.5.5 0 0 1 .2-.2h4a.5.5 0 0 1 .3 0l2.7 2.7a.4.4 0 0 1 .1.4.4.4 0 0 1-.1.3l-.3.2a65.3 65.3 0 0 1-13.6 8.8L20 49a1.1 1.1 0 0 1-1.1 1.4zm-3.2-4.2 3.1 3.1a.2.2 0 0 0 .2 0 .2.2 0 0 0 0-.1l-.5-2.4a.7.7 0 0 1 .4-.8 65.6 65.6 0 0 0 13.3-8.6l-2.2-2.2h-3.5zm3.8.4z" class="C"/><path d="m12.3 49.2 2.7-2.7 4 4.2-6.5-.5a.5.5 0 0 1-.2-1z" class="D"/><path d="m19.1 51-6.5-.4c-.4 0-.7-.3-.8-.7s0-.7.2-1l2.7-2.7a.5.5 0 0 1 .6 0l4.1 4.1a.5.5 0 0 1 0 .5.5.5 0 0 1-.3.3zm-6.5-1.4 5.4.3-3-2.7z" class="C"/><path d="m30.7 35.3-5.3.8 3-3z" class="D"/><path d="M25.4 36.7a.5.5 0 0 1-.5-.3.5.5 0 0 1 0-.5l3.1-3.2a.5.5 0 0 1 .7 0L31 35a.5.5 0 0 1 0 .5.5.5 0 0 1-.4.3l-5.3.9zm3-3-1.7 1.8 3-.5z" class="C"/><path d="m30.7 35.3-3.7.5a.5.5 0 0 1-.5-.8l2-2z" class="D"/><path d="M26.9 36.3a1 1 0 0 1-.9-.5 1 1 0 0 1 .2-1.1l2-2a.5.5 0 0 1 .6 0l2.3 2.3a.5.5 0 0 1-.3.8l-3.7.5zm0-1 2.8-.3-1.3-1.3-1.6 1.6zM50 16a.4.4 0 0 0-.5-.1.4.4 0 0 0-.2.2.4.4 0 0 0 0 .3c.2.4.1.8-.1 1.2a.3.3 0 0 0-.1.2.4.4 0 0 0 0 .3.3.3 0 0 0 .3 0 .3.3 0 0 0 .3-.1 1.8 1.8 0 0 0 .3-2z" class="C"/></svg>