<svg xmlns="http://www.w3.org/2000/svg" xmlns:xlink="http://www.w3.org/1999/xlink" viewBox="0 0 96 96"><defs><path id="a" d="M69 96a6 6 0 0 0 4-1l20-9a6 6 0 0 0 3-6V16a6 6 0 0 0-3-6L73 1a6 6 0 0 0-5 0 6 6 0 0 0-2 1L34 37 16 22l-2-1a4 4 0 0 0-4-1l-8 3a4 4 0 0 0-2 3v44a4 4 0 0 0 2 3l8 3a4 4 0 0 0 4-1l2-1 18-15 32 35a6 6 0 0 0 3 2Zm3-68L47 48l25 20Zm-60 6 12 14-12 14Z" style="fill-rule:evenodd;fill:#fff"/></defs><defs><linearGradient id="c" x1="48" x2="48" y1="97.8" y2="2.3" gradientTransform="matrix(1 0 0 -1 0 98)" gradientUnits="userSpaceOnUse"><stop offset="0" stop-color="#fff"/><stop offset="1" stop-color="#fff" stop-opacity="0"/></linearGradient><mask id="b" width="96" height="95.5" x="0" y="0" maskUnits="userSpaceOnUse"><use xlink:href="#a" style="fill-rule:evenodd;fill:#fff"/></mask></defs><g mask="url(#b)" style="mask:url(#b)"><path d="M14 75a4 4 0 0 1-4 1l-8-3a4 4 0 0 1-2-4V27a4 4 0 0 1 2-4l8-3a4 4 0 0 1 4 1l2 1a2 2 0 0 0-4 2v48a2 2 0 0 0 4 2Z" style="fill:#52218a"/><path d="M2 73a4 4 0 0 1-2-4 2 2 0 0 0 4 2L66 2a6 6 0 0 1 7-1l20 9a6 6 0 0 1 3 6 4 4 0 0 0-6-3L16 74l-2 1a4 4 0 0 1-4 1Z" style="fill:#6c33af"/><path d="M2 23a4 4 0 0 0-2 4 2 2 0 0 1 4-2l62 69a6 6 0 0 0 7 1l20-9a6 6 0 0 0 3-6 4 4 0 0 1-6 3L16 22l-2-1a4 4 0 0 0-4-1Z" style="fill:#854cc7"/><path d="M73 95a6 6 0 0 1-7-1 4 4 0 0 0 6-2V5a4 4 0 0 0-6-3 6 6 0 0 1 7-1l20 9a6 6 0 0 1 3 6v64a6 6 0 0 1-3 6Z" style="fill:#b179f1"/><g style="opacity:.25"><use xlink:href="#a" style="fill:url(#c);fill-rule:evenodd"/></g></g></svg>