<svg xmlns="http://www.w3.org/2000/svg" width="2000" height="2000" viewBox="-.1 1.1 243.9 245.5"><path fill="#232f3e" d="M-.9 1.1h245.5v245.5H-.9z"/><path fill="#fff" d="M79.4 107.9a18.7 18.7 0 0 0 2.7 10.4c.4.5.5 1 .5 1.5 0 .7-.4 1.3-1.2 2l-4.1 2.7c-.6.4-1.2.6-1.7.6-.7 0-1.3-.4-2-1-.9-1-1.6-2-2.3-3l-2-3.8c-5 6-11.4 9-19 9-5.5 0-9.8-1.6-13-4.7s-4.8-7.3-4.8-12.5c0-5.5 2-10 5.9-13.3s9.2-5 15.9-5a51.3 51.3 0 0 1 14.3 1.9v-4.8c0-4.9-1-8.3-3-10.3-2.1-2-5.6-3-10.6-3-2.3 0-4.6.2-7 .8a54 54 0 0 0-9.3 3 4 4 0 0 1-1 .3c-1 0-1.4-.7-1.4-2v-3.2c0-1 .2-1.8.5-2.3s.9-.9 1.8-1.3a39.3 39.3 0 0 1 18.3-4.1c7.7 0 13.3 1.7 17 5.2 3.5 3.5 5.3 8.8 5.3 15.9v21zM53 117.7c2.2 0 4.4-.3 6.7-1.1s4.4-2.2 6.2-4.2c1-1.2 1.8-2.6 2.2-4.1s.6-3.5.6-5.7V100a54.1 54.1 0 0 0-12-1.5c-4.4 0-7.5.9-9.7 2.6s-3.2 4.2-3.2 7.5c0 3 .8 5.3 2.4 6.8 1.6 1.7 3.9 2.4 6.8 2.4zm52 7c-1 0-1.9-.2-2.4-.6-.5-.4-1-1.3-1.3-2.5L86 71.5l-.6-2.6c0-1 .6-1.6 1.6-1.6h6.3c1.3 0 2.1.2 2.6.6.5.4.9 1.3 1.3 2.5l10.9 43 10-43c.4-1.3.8-2.1 1.3-2.5s1.4-.6 2.6-.6h5.2c1.2 0 2 .2 2.6.6.5.4 1 1.3 1.2 2.5l10.2 43.5 11.2-43.5c.4-1.3.9-2.1 1.3-2.5.6-.4 1.4-.6 2.6-.6h6c1 0 1.6.5 1.6 1.6l-.1 1c-.1.4-.2 1-.5 1.6l-15.6 50.1c-.4 1.3-.8 2.2-1.3 2.6s-1.4.6-2.5.6h-5.6c-1.2 0-2-.2-2.6-.6s-1-1.3-1.2-2.6l-10-41.8-10 41.7c-.4 1.3-.7 2.1-1.3 2.6s-1.4.6-2.6.6zm83.3 1.8a42.9 42.9 0 0 1-17.4-3.8c-1-.6-1.7-1.2-2-1.8s-.4-1.2-.4-1.8v-3.3c0-1.4.5-2 1.5-2 .4 0 .8 0 1.2.2l1.6.6a35.2 35.2 0 0 0 14.8 3c4.1 0 7.3-.6 9.5-2s3.4-3.6 3.4-6.2c0-1.8-.6-3.3-1.8-4.6s-3.4-2.3-6.5-3.3l-9.4-3a19.8 19.8 0 0 1-10.4-6.6 15.4 15.4 0 0 1 3.2-21.9c2-1.4 4.1-2.5 6.7-3.3s5.3-1.1 8.2-1.1a32.5 32.5 0 0 1 8.5 1 50.4 50.4 0 0 1 6.5 2.2c.9.5 1.5 1 1.9 1.6.4.5.6 1.2.6 2.1v3c0 1.4-.5 2.1-1.5 2.1-.5 0-1.4-.2-2.5-.7a29.6 29.6 0 0 0-12.4-2.6c-3.7 0-6.6.6-8.6 1.8s-3 3.1-3 5.8c0 1.8.6 3.4 1.9 4.6s3.7 2.5 7 3.6l9.3 2.9c4.7 1.5 8 3.5 10 6.2s3 5.7 3 9c0 2.9-.6 5.4-1.7 7.6a17.4 17.4 0 0 1-4.7 5.7 28.3 28.3 0 0 1-16.5 5z"/><g fill="#f90" fill-rule="evenodd" clip-rule="evenodd"><path d="M200.6 158a139.8 139.8 0 0 1-79 24c-37.3 0-70.9-13.7-96.3-36.7-2-1.8-.2-4.2 2.2-2.8C55 158.5 89 168 124 168c23.7 0 49.7-5 73.6-15 3.5-1.7 6.6 2.3 3 4.9z"/><path d="M209.5 147.9c-2.8-3.5-18-1.7-25-.9-2 .3-2.4-1.5-.5-2.9 12.2-8.5 32.2-6 34.5-3.2 2.4 2.9-.6 23-12 32.5-1.8 1.5-3.4.7-2.7-1.2 2.6-6.4 8.4-20.9 5.7-24.3z"/></g></svg>