<svg xmlns="http://www.w3.org/2000/svg" xml:space="preserve" viewBox="0 0 420 420"><path fill="#c69" fill-rule="evenodd" d="M210 5a205 205 0 1 1 0 410 205 205 0 0 1 0-410" clip-rule="evenodd"/><path fill="#fff" d="M339 92c-9-36-70-48-127-28-34 12-71 31-98 56-31 30-36 55-34 66 7 38 59 63 80 81-6 3-52 27-63 50-11 26 2 44 11 46 27 8 55-6 69-28 15-22 14-49 7-63 9-2 19-3 32-2 36 4 43 27 42 36-2 10-9 15-12 16-2 2-3 2-3 4l4 1c3-1 19-8 19-25 1-22-20-47-57-46-16 0-26 1-33 4l-1-2c-23-24-66-42-64-75 0-12 5-44 82-83 63-31 114-22 123-3 12 27-27 79-93 86-25 3-38-7-42-11-3-3-4-4-5-3-2 1-1 5 0 7 2 5 10 14 24 18 12 4 41 6 77-7 40-16 71-59 62-95M169 278a53 53 0 0 1-12 51c-12 13-29 18-36 14-8-5-4-23 10-38 15-15 36-25 36-25v-1l2-1"/></svg>